<?xml version="1.0" standalone="no"?>
<!DOCTYPE svg PUBLIC "-//W3C//DTD SVG 20010904//EN"
 "http://www.w3.org/TR/2001/REC-SVG-20010904/DTD/svg10.dtd">
<svg version="1.0" xmlns="http://www.w3.org/2000/svg"
 width="536.000000pt" height="199.000000pt" viewBox="0 0 536.000000 199.000000"
 preserveAspectRatio="xMidYMid meet">

<g transform="translate(0.000000,199.000000) scale(0.100000,-0.100000)"
fill="#000000" stroke="none">
<path d="M4057 1967 c-61 -14 -91 -17 -95 -10 -5 8 -44 4 -127 -12 -66 -13
-124 -20 -130 -15 -15 11 -116 11 -239 1 -109 -9 -110 -9 -128 15 -19 23 -23
24 -168 24 -114 0 -150 -3 -159 -14 -6 -8 -13 -51 -15 -97 -2 -46 -7 -128 -11
-181 l-8 -98 49 0 c63 0 132 -34 156 -76 24 -42 43 -179 39 -289 -6 -170 -5
-340 2 -535 8 -187 7 -196 -12 -227 -23 -37 -37 -39 -135 -23 -33 5 -62 7 -65
4 -3 -2 -14 -84 -26 -180 l-21 -176 52 -35 52 -35 219 12 c145 7 241 8 288 1
100 -14 314 -14 330 -1 9 8 76 9 222 5 281 -9 308 -10 383 -5 36 2 82 0 104
-5 26 -5 40 -4 45 4 6 9 25 9 77 1 38 -6 107 -10 153 -8 110 4 121 17 129 147
3 55 1 96 -5 103 -7 8 -11 136 -12 343 -1 181 -4 332 -7 334 -2 3 -59 -6 -127
-19 l-122 -23 -78 22 c-43 12 -83 19 -88 16 -5 -4 -16 -19 -24 -35 -13 -26
-13 -37 1 -102 22 -102 27 -208 14 -260 -34 -125 -158 -183 -337 -158 -82 12
-85 12 -108 -10 -22 -21 -27 -22 -57 -9 -56 22 -104 56 -137 96 -27 33 -31 45
-30 98 0 33 4 92 8 130 5 44 5 75 -2 83 -6 8 -6 57 2 145 6 72 11 232 11 354
l0 222 26 20 c33 26 101 46 204 62 l80 11 0 172 0 172 -33 32 c-18 18 -37 31
-42 31 -6 -1 -50 -11 -98 -22z"/>
<path d="M610 1510 c-314 -86 -292 -78 -288 -103 2 -18 12 -23 47 -28 70 -9
91 -41 91 -140 l0 -79 -45 0 -45 0 0 67 0 66 -23 -21 -24 -22 -18 20 c-14 15
-31 20 -71 20 -50 0 -53 -1 -63 -32 -102 -325 -171 -564 -171 -595 0 -63 27
-169 60 -238 58 -122 190 -237 348 -304 140 -59 377 -111 507 -111 82 0 216
40 343 101 87 42 117 63 181 127 105 105 147 195 167 356 l7 58 -65 -4 c-104
-6 -150 -54 -166 -172 l-7 -55 -140 -117 -139 -116 -81 7 c-255 21 -405 95
-472 234 -26 52 -28 66 -31 211 -8 328 58 609 158 678 31 20 44 22 191 22
l157 0 49 -38 c103 -82 157 -170 169 -274 l7 -58 134 0 134 0 50 48 49 47
-116 138 c-90 106 -121 137 -140 137 -22 0 -24 -4 -24 -45 0 -39 -3 -45 -21
-45 -11 0 -57 33 -102 73 -116 103 -189 155 -287 204 -46 24 -87 43 -90 42 -3
0 -102 -27 -220 -59z"/>
<path d="M1717 314 c-21 -7 -51 -11 -68 -7 l-29 6 0 -145 0 -145 53 -7 c90
-10 242 -7 255 6 13 13 18 308 5 308 -5 -1 -35 -7 -67 -15 -49 -12 -63 -12
-85 -1 -22 11 -33 11 -64 0z"/>
<path d="M5127 314 c-21 -7 -51 -11 -68 -7 l-29 6 0 -145 0 -145 53 -7 c90
-10 242 -7 255 6 13 13 18 308 5 308 -5 -1 -35 -7 -67 -15 -49 -12 -63 -12
-85 -1 -22 11 -33 11 -64 0z"/>
</g>
</svg>
